<?xml version="1.0" standalone="no"?>
<svg xmlns:xlink="http://www.w3.org/1999/xlink" id="wave" style="transform:rotate(0deg); transition: 0.3s" viewBox="0 0 1440 290" version="1.1" xmlns="http://www.w3.org/2000/svg"><defs><linearGradient id="sw-gradient-0" x1="0" x2="0" y1="1" y2="0"><stop stop-color="rgba(54, 55, 56, 1)" offset="0%"/><stop stop-color="rgba(54, 55, 56, 1)" offset="100%"/></linearGradient></defs><path style="transform:translate(0, 0px); opacity:1" fill="url(#sw-gradient-0)" d="M0,29L48,53.2C96,77,192,126,288,164.3C384,203,480,232,576,217.5C672,203,768,145,864,106.3C960,68,1056,48,1152,53.2C1248,58,1344,87,1440,101.5C1536,116,1632,116,1728,111.2C1824,106,1920,97,2016,77.3C2112,58,2208,29,2304,58C2400,87,2496,174,2592,178.8C2688,184,2784,106,2880,67.7C2976,29,3072,29,3168,38.7C3264,48,3360,68,3456,62.8C3552,58,3648,29,3744,14.5C3840,0,3936,0,4032,0C4128,0,4224,0,4320,33.8C4416,68,4512,135,4608,149.8C4704,164,4800,126,4896,111.2C4992,97,5088,106,5184,106.3C5280,106,5376,97,5472,101.5C5568,106,5664,126,5760,125.7C5856,126,5952,106,6048,120.8C6144,135,6240,184,6336,178.8C6432,174,6528,116,6624,87C6720,58,6816,58,6864,58L6912,58L6912,290L6864,290C6816,290,6720,290,6624,290C6528,290,6432,290,6336,290C6240,290,6144,290,6048,290C5952,290,5856,290,5760,290C5664,290,5568,290,5472,290C5376,290,5280,290,5184,290C5088,290,4992,290,4896,290C4800,290,4704,290,4608,290C4512,290,4416,290,4320,290C4224,290,4128,290,4032,290C3936,290,3840,290,3744,290C3648,290,3552,290,3456,290C3360,290,3264,290,3168,290C3072,290,2976,290,2880,290C2784,290,2688,290,2592,290C2496,290,2400,290,2304,290C2208,290,2112,290,2016,290C1920,290,1824,290,1728,290C1632,290,1536,290,1440,290C1344,290,1248,290,1152,290C1056,290,960,290,864,290C768,290,672,290,576,290C480,290,384,290,288,290C192,290,96,290,48,290L0,290Z"/></svg>