<?xml version="1.0" standalone="no"?>
<svg xmlns:xlink="http://www.w3.org/1999/xlink" id="wave" style="transform:rotate(0deg); transition: 0.3s" viewBox="0 0 1440 420" version="1.1" xmlns="http://www.w3.org/2000/svg"><defs><linearGradient id="sw-gradient-0" x1="0" x2="0" y1="1" y2="0"><stop stop-color="rgba(54, 55, 56, 1)" offset="0%"/><stop stop-color="rgba(54, 55, 56, 1)" offset="100%"/></linearGradient></defs><path style="transform:translate(0, 0px); opacity:1" fill="url(#sw-gradient-0)" d="M0,294L60,294C120,294,240,294,360,266C480,238,600,182,720,161C840,140,960,154,1080,182C1200,210,1320,252,1440,280C1560,308,1680,322,1800,336C1920,350,2040,364,2160,357C2280,350,2400,322,2520,308C2640,294,2760,294,2880,245C3000,196,3120,98,3240,84C3360,70,3480,140,3600,161C3720,182,3840,154,3960,182C4080,210,4200,294,4320,294C4440,294,4560,210,4680,168C4800,126,4920,126,5040,133C5160,140,5280,154,5400,161C5520,168,5640,168,5760,189C5880,210,6000,252,6120,245C6240,238,6360,182,6480,140C6600,98,6720,70,6840,56C6960,42,7080,42,7200,84C7320,126,7440,210,7560,238C7680,266,7800,238,7920,210C8040,182,8160,154,8280,175C8400,196,8520,266,8580,301L8640,336L8640,420L8580,420C8520,420,8400,420,8280,420C8160,420,8040,420,7920,420C7800,420,7680,420,7560,420C7440,420,7320,420,7200,420C7080,420,6960,420,6840,420C6720,420,6600,420,6480,420C6360,420,6240,420,6120,420C6000,420,5880,420,5760,420C5640,420,5520,420,5400,420C5280,420,5160,420,5040,420C4920,420,4800,420,4680,420C4560,420,4440,420,4320,420C4200,420,4080,420,3960,420C3840,420,3720,420,3600,420C3480,420,3360,420,3240,420C3120,420,3000,420,2880,420C2760,420,2640,420,2520,420C2400,420,2280,420,2160,420C2040,420,1920,420,1800,420C1680,420,1560,420,1440,420C1320,420,1200,420,1080,420C960,420,840,420,720,420C600,420,480,420,360,420C240,420,120,420,60,420L0,420Z"/></svg>