<?xml version="1.0" standalone="no"?>
<svg xmlns:xlink="http://www.w3.org/1999/xlink" id="wave" style="transform:rotate(0deg); transition: 0.3s" viewBox="0 0 1440 490" version="1.1" xmlns="http://www.w3.org/2000/svg"><defs><linearGradient id="sw-gradient-0" x1="0" x2="0" y1="1" y2="0"><stop stop-color="rgba(54, 55, 56, 1)" offset="0%"/><stop stop-color="rgba(54, 55, 56, 1)" offset="100%"/></linearGradient></defs><path style="transform:translate(0, 0px); opacity:1" fill="url(#sw-gradient-0)" d="M0,196L80,196C160,196,320,196,480,171.5C640,147,800,98,960,81.7C1120,65,1280,82,1440,89.8C1600,98,1760,98,1920,122.5C2080,147,2240,196,2400,187.8C2560,180,2720,114,2880,114.3C3040,114,3200,180,3360,179.7C3520,180,3680,114,3840,130.7C4000,147,4160,245,4320,310.3C4480,376,4640,408,4800,416.5C4960,425,5120,408,5280,383.8C5440,359,5600,327,5760,294C5920,261,6080,229,6240,204.2C6400,180,6560,163,6720,171.5C6880,180,7040,212,7200,212.3C7360,212,7520,180,7680,163.3C7840,147,8000,147,8160,122.5C8320,98,8480,49,8640,57.2C8800,65,8960,131,9120,163.3C9280,196,9440,196,9600,163.3C9760,131,9920,65,10080,73.5C10240,82,10400,163,10560,171.5C10720,180,10880,114,11040,89.8C11200,65,11360,82,11440,89.8L11520,98L11520,490L11440,490C11360,490,11200,490,11040,490C10880,490,10720,490,10560,490C10400,490,10240,490,10080,490C9920,490,9760,490,9600,490C9440,490,9280,490,9120,490C8960,490,8800,490,8640,490C8480,490,8320,490,8160,490C8000,490,7840,490,7680,490C7520,490,7360,490,7200,490C7040,490,6880,490,6720,490C6560,490,6400,490,6240,490C6080,490,5920,490,5760,490C5600,490,5440,490,5280,490C5120,490,4960,490,4800,490C4640,490,4480,490,4320,490C4160,490,4000,490,3840,490C3680,490,3520,490,3360,490C3200,490,3040,490,2880,490C2720,490,2560,490,2400,490C2240,490,2080,490,1920,490C1760,490,1600,490,1440,490C1280,490,1120,490,960,490C800,490,640,490,480,490C320,490,160,490,80,490L0,490Z"/></svg>