<?xml version="1.0" standalone="no"?>
<svg xmlns:xlink="http://www.w3.org/1999/xlink" id="wave" style="transform:rotate(0deg); transition: 0.3s" viewBox="0 0 1440 490" version="1.1" xmlns="http://www.w3.org/2000/svg"><defs><linearGradient id="sw-gradient-0" x1="0" x2="0" y1="1" y2="0"><stop stop-color="rgba(54, 55, 56, 1)" offset="0%"/><stop stop-color="rgba(54, 55, 56, 1)" offset="100%"/></linearGradient></defs><path style="transform:translate(0, 0px); opacity:1" fill="url(#sw-gradient-0)" d="M0,147L80,138.8C160,131,320,114,480,106.2C640,98,800,98,960,114.3C1120,131,1280,163,1440,155.2C1600,147,1760,98,1920,81.7C2080,65,2240,82,2400,81.7C2560,82,2720,65,2880,114.3C3040,163,3200,278,3360,285.8C3520,294,3680,196,3840,138.8C4000,82,4160,65,4320,57.2C4480,49,4640,49,4800,49C4960,49,5120,49,5280,73.5C5440,98,5600,147,5760,212.3C5920,278,6080,359,6240,343C6400,327,6560,212,6720,204.2C6880,196,7040,294,7200,318.5C7360,343,7520,294,7680,261.3C7840,229,8000,212,8160,220.5C8320,229,8480,261,8640,245C8800,229,8960,163,9120,187.8C9280,212,9440,327,9600,359.3C9760,392,9920,343,10080,269.5C10240,196,10400,98,10560,122.5C10720,147,10880,294,11040,359.3C11200,425,11360,408,11440,400.2L11520,392L11520,490L11440,490C11360,490,11200,490,11040,490C10880,490,10720,490,10560,490C10400,490,10240,490,10080,490C9920,490,9760,490,9600,490C9440,490,9280,490,9120,490C8960,490,8800,490,8640,490C8480,490,8320,490,8160,490C8000,490,7840,490,7680,490C7520,490,7360,490,7200,490C7040,490,6880,490,6720,490C6560,490,6400,490,6240,490C6080,490,5920,490,5760,490C5600,490,5440,490,5280,490C5120,490,4960,490,4800,490C4640,490,4480,490,4320,490C4160,490,4000,490,3840,490C3680,490,3520,490,3360,490C3200,490,3040,490,2880,490C2720,490,2560,490,2400,490C2240,490,2080,490,1920,490C1760,490,1600,490,1440,490C1280,490,1120,490,960,490C800,490,640,490,480,490C320,490,160,490,80,490L0,490Z"/></svg>